# xmcd CD database file
#
# Track frame offsets:
#	150
#	24413
#	38250
#	64091
#	79519
#	91905
#	105217
#	132759
#	153872
#	169819
#	189959
#
# Disc length: 3210 seconds
#
# Revision: 0
# Processed by: cddbd v1.5.2PL0 Copyright (c) Steve Scherf et al.
# Submitted via: CDex 1.88
#
DISCID=6c0c880b
DTITLE=Various Artist - Unknown CD for MusicBrainz and FreeDB
DYEAR=1900
DGENRE=Jazz
TTITLE0=Three to Get Ready
TTITLE1=Night and Day [Live]
TTITLE2=Capricious
TTITLE3=Once Upon a Summertime
TTITLE4=I Got Rhythm [Take 1]
TTITLE5=I Know You Oh So Well
TTITLE6=Don't Stop the Carnival [Remastered]
TTITLE7=Jive Hoot
TTITLE8=Laura
TTITLE9=Que reste-t-il de nos amours?
TTITLE10=Butterfly
EXTD=
EXTT0=
EXTT1=
EXTT2=
EXTT3=
EXTT4=
EXTT5=
EXTT6=
EXTT7=
EXTT8=
EXTT9=
EXTT10=
PLAYORDER=
